<mxfile host="app.diagrams.net" agent="Mozilla/5.0 (Windows NT 10.0; Win64; x64) AppleWebKit/537.36 (KHTML, like Gecko) Chrome/133.0.0.0 Safari/537.36" version="26.0.16">
  <diagram name="Page-1" id="RTrCaiIZ4T2Bg3R7exTZ">
    <mxGraphModel dx="2062" dy="701" grid="1" gridSize="10" guides="1" tooltips="1" connect="1" arrows="1" fold="1" page="1" pageScale="1" pageWidth="827" pageHeight="1169" math="0" shadow="0">
      <root>
        <mxCell id="0" />
        <mxCell id="1" parent="0" />
        <mxCell id="OikmurhwPrqFWd2QoXXc-2" value="Admin" style="rounded=0;whiteSpace=wrap;html=1;" parent="1" vertex="1">
          <mxGeometry x="177" y="230" width="80" height="40" as="geometry" />
        </mxCell>
        <mxCell id="OikmurhwPrqFWd2QoXXc-3" value="Approved Bookings" style="rounded=0;whiteSpace=wrap;html=1;" parent="1" vertex="1">
          <mxGeometry x="487" y="210" width="90" height="40" as="geometry" />
        </mxCell>
        <mxCell id="OikmurhwPrqFWd2QoXXc-4" value="Bookings" style="rounded=0;whiteSpace=wrap;html=1;" parent="1" vertex="1">
          <mxGeometry x="237" y="490" width="90" height="40" as="geometry" />
        </mxCell>
        <mxCell id="OikmurhwPrqFWd2QoXXc-5" value="Reviews" style="rhombus;whiteSpace=wrap;html=1;" parent="1" vertex="1">
          <mxGeometry x="237" y="330" width="80" height="80" as="geometry" />
        </mxCell>
        <mxCell id="OikmurhwPrqFWd2QoXXc-7" value="" style="endArrow=none;html=1;rounded=0;entryX=0.5;entryY=1;entryDx=0;entryDy=0;exitX=0.5;exitY=0;exitDx=0;exitDy=0;" parent="1" source="OikmurhwPrqFWd2QoXXc-5" target="OikmurhwPrqFWd2QoXXc-2" edge="1">
          <mxGeometry width="50" height="50" relative="1" as="geometry">
            <mxPoint x="187" y="330" as="sourcePoint" />
            <mxPoint x="237" y="280" as="targetPoint" />
          </mxGeometry>
        </mxCell>
        <mxCell id="OikmurhwPrqFWd2QoXXc-8" value="" style="endArrow=none;html=1;rounded=0;entryX=0.5;entryY=1;entryDx=0;entryDy=0;exitX=0.5;exitY=0;exitDx=0;exitDy=0;" parent="1" source="OikmurhwPrqFWd2QoXXc-4" target="OikmurhwPrqFWd2QoXXc-5" edge="1">
          <mxGeometry width="50" height="50" relative="1" as="geometry">
            <mxPoint x="216.5" y="490" as="sourcePoint" />
            <mxPoint x="216.5" y="420" as="targetPoint" />
          </mxGeometry>
        </mxCell>
        <mxCell id="OikmurhwPrqFWd2QoXXc-9" value="Approves" style="rhombus;whiteSpace=wrap;html=1;rotation=-15;" parent="1" vertex="1">
          <mxGeometry x="337" y="310" width="80" height="80" as="geometry" />
        </mxCell>
        <mxCell id="OikmurhwPrqFWd2QoXXc-10" value="" style="endArrow=none;html=1;rounded=0;entryX=0.5;entryY=0;entryDx=0;entryDy=0;exitX=1;exitY=0.5;exitDx=0;exitDy=0;" parent="1" source="OikmurhwPrqFWd2QoXXc-2" target="OikmurhwPrqFWd2QoXXc-9" edge="1">
          <mxGeometry width="50" height="50" relative="1" as="geometry">
            <mxPoint x="227" y="350" as="sourcePoint" />
            <mxPoint x="227" y="280" as="targetPoint" />
          </mxGeometry>
        </mxCell>
        <mxCell id="OikmurhwPrqFWd2QoXXc-11" value="" style="endArrow=none;html=1;rounded=0;entryX=0.5;entryY=1;entryDx=0;entryDy=0;exitX=1;exitY=0.25;exitDx=0;exitDy=0;" parent="1" source="OikmurhwPrqFWd2QoXXc-4" target="OikmurhwPrqFWd2QoXXc-9" edge="1">
          <mxGeometry width="50" height="50" relative="1" as="geometry">
            <mxPoint x="267" y="477.5" as="sourcePoint" />
            <mxPoint x="367" y="542.5" as="targetPoint" />
          </mxGeometry>
        </mxCell>
        <mxCell id="OikmurhwPrqFWd2QoXXc-12" value="" style="endArrow=none;html=1;rounded=0;entryX=0;entryY=0.5;entryDx=0;entryDy=0;exitX=1;exitY=0.5;exitDx=0;exitDy=0;" parent="1" source="OikmurhwPrqFWd2QoXXc-9" target="OikmurhwPrqFWd2QoXXc-3" edge="1">
          <mxGeometry width="50" height="50" relative="1" as="geometry">
            <mxPoint x="397" y="220" as="sourcePoint" />
            <mxPoint x="507" y="281" as="targetPoint" />
          </mxGeometry>
        </mxCell>
        <mxCell id="OikmurhwPrqFWd2QoXXc-13" value="Contains" style="rhombus;whiteSpace=wrap;html=1;" parent="1" vertex="1">
          <mxGeometry x="507" y="300" width="80" height="80" as="geometry" />
        </mxCell>
        <mxCell id="OikmurhwPrqFWd2QoXXc-14" value="" style="endArrow=none;html=1;rounded=0;entryX=0.5;entryY=0;entryDx=0;entryDy=0;exitX=0.5;exitY=1;exitDx=0;exitDy=0;" parent="1" source="OikmurhwPrqFWd2QoXXc-3" target="OikmurhwPrqFWd2QoXXc-13" edge="1">
          <mxGeometry width="50" height="50" relative="1" as="geometry">
            <mxPoint x="426" y="350" as="sourcePoint" />
            <mxPoint x="517" y="291" as="targetPoint" />
          </mxGeometry>
        </mxCell>
        <mxCell id="OikmurhwPrqFWd2QoXXc-15" value="Dishes" style="rounded=0;whiteSpace=wrap;html=1;" parent="1" vertex="1">
          <mxGeometry x="507" y="430" width="80" height="40" as="geometry" />
        </mxCell>
        <mxCell id="OikmurhwPrqFWd2QoXXc-16" value="Belongs To" style="rhombus;whiteSpace=wrap;html=1;direction=south;" parent="1" vertex="1">
          <mxGeometry x="527" y="505" width="80" height="80" as="geometry" />
        </mxCell>
        <mxCell id="OikmurhwPrqFWd2QoXXc-17" value="" style="endArrow=none;html=1;rounded=0;entryX=0.5;entryY=0;entryDx=0;entryDy=0;exitX=0.5;exitY=1;exitDx=0;exitDy=0;" parent="1" source="OikmurhwPrqFWd2QoXXc-13" target="OikmurhwPrqFWd2QoXXc-15" edge="1">
          <mxGeometry width="50" height="50" relative="1" as="geometry">
            <mxPoint x="537" y="390" as="sourcePoint" />
            <mxPoint x="532" y="420" as="targetPoint" />
          </mxGeometry>
        </mxCell>
        <mxCell id="OikmurhwPrqFWd2QoXXc-18" value="Categories" style="rounded=0;whiteSpace=wrap;html=1;" parent="1" vertex="1">
          <mxGeometry x="547" y="625" width="90" height="40" as="geometry" />
        </mxCell>
        <mxCell id="OikmurhwPrqFWd2QoXXc-19" value="" style="endArrow=none;html=1;rounded=0;exitX=0.5;exitY=1;exitDx=0;exitDy=0;entryX=0;entryY=0.5;entryDx=0;entryDy=0;" parent="1" source="OikmurhwPrqFWd2QoXXc-15" target="OikmurhwPrqFWd2QoXXc-16" edge="1">
          <mxGeometry width="50" height="50" relative="1" as="geometry">
            <mxPoint x="542" y="400" as="sourcePoint" />
            <mxPoint x="542" y="440" as="targetPoint" />
          </mxGeometry>
        </mxCell>
        <mxCell id="OikmurhwPrqFWd2QoXXc-20" value="" style="endArrow=none;html=1;rounded=0;exitX=1;exitY=0.5;exitDx=0;exitDy=0;entryX=0.5;entryY=0;entryDx=0;entryDy=0;" parent="1" source="OikmurhwPrqFWd2QoXXc-16" target="OikmurhwPrqFWd2QoXXc-18" edge="1">
          <mxGeometry width="50" height="50" relative="1" as="geometry">
            <mxPoint x="542" y="480" as="sourcePoint" />
            <mxPoint x="465" y="534" as="targetPoint" />
          </mxGeometry>
        </mxCell>
        <mxCell id="OikmurhwPrqFWd2QoXXc-21" value="" style="endArrow=none;html=1;rounded=0;entryX=0.5;entryY=0;entryDx=0;entryDy=0;exitX=1;exitY=0.5;exitDx=0;exitDy=0;" parent="1" source="OikmurhwPrqFWd2QoXXc-26" edge="1">
          <mxGeometry width="50" height="50" relative="1" as="geometry">
            <mxPoint x="117" y="199" as="sourcePoint" />
            <mxPoint x="187" y="230" as="targetPoint" />
            <Array as="points" />
          </mxGeometry>
        </mxCell>
        <mxCell id="OikmurhwPrqFWd2QoXXc-22" value="" style="endArrow=none;html=1;rounded=0;entryX=0.5;entryY=0;entryDx=0;entryDy=0;" parent="1" target="OikmurhwPrqFWd2QoXXc-23" edge="1">
          <mxGeometry width="50" height="50" relative="1" as="geometry">
            <mxPoint x="217" y="230" as="sourcePoint" />
            <mxPoint x="207" y="230" as="targetPoint" />
            <Array as="points" />
          </mxGeometry>
        </mxCell>
        <mxCell id="OikmurhwPrqFWd2QoXXc-23" value="name" style="ellipse;whiteSpace=wrap;html=1;" parent="1" vertex="1">
          <mxGeometry x="37" y="170" width="80" height="30" as="geometry" />
        </mxCell>
        <mxCell id="OikmurhwPrqFWd2QoXXc-24" value="email" style="ellipse;whiteSpace=wrap;html=1;" parent="1" vertex="1">
          <mxGeometry x="107" y="120" width="80" height="30" as="geometry" />
        </mxCell>
        <mxCell id="OikmurhwPrqFWd2QoXXc-25" value="password" style="ellipse;whiteSpace=wrap;html=1;" parent="1" vertex="1">
          <mxGeometry x="187" y="130" width="80" height="30" as="geometry" />
        </mxCell>
        <mxCell id="OikmurhwPrqFWd2QoXXc-26" value="id" style="ellipse;whiteSpace=wrap;html=1;fontStyle=4" parent="1" vertex="1">
          <mxGeometry x="57" y="220" width="80" height="30" as="geometry" />
        </mxCell>
        <mxCell id="OikmurhwPrqFWd2QoXXc-27" value="" style="endArrow=none;html=1;rounded=0;entryX=0.5;entryY=1;entryDx=0;entryDy=0;exitX=0.5;exitY=0;exitDx=0;exitDy=0;" parent="1" source="OikmurhwPrqFWd2QoXXc-2" target="OikmurhwPrqFWd2QoXXc-24" edge="1">
          <mxGeometry width="50" height="50" relative="1" as="geometry">
            <mxPoint x="216" y="238" as="sourcePoint" />
            <mxPoint x="87" y="160" as="targetPoint" />
            <Array as="points" />
          </mxGeometry>
        </mxCell>
        <mxCell id="OikmurhwPrqFWd2QoXXc-28" value="" style="endArrow=none;html=1;rounded=0;entryX=0.5;entryY=1;entryDx=0;entryDy=0;exitX=0.5;exitY=0;exitDx=0;exitDy=0;" parent="1" source="OikmurhwPrqFWd2QoXXc-2" target="OikmurhwPrqFWd2QoXXc-25" edge="1">
          <mxGeometry width="50" height="50" relative="1" as="geometry">
            <mxPoint x="227" y="240" as="sourcePoint" />
            <mxPoint x="157" y="160" as="targetPoint" />
            <Array as="points" />
          </mxGeometry>
        </mxCell>
        <mxCell id="OikmurhwPrqFWd2QoXXc-29" value="end date" style="ellipse;whiteSpace=wrap;html=1;" parent="1" vertex="1">
          <mxGeometry x="17" y="435" width="70" height="30" as="geometry" />
        </mxCell>
        <mxCell id="OikmurhwPrqFWd2QoXXc-30" value="guest" style="ellipse;whiteSpace=wrap;html=1;" parent="1" vertex="1">
          <mxGeometry x="17" y="470" width="70" height="30" as="geometry" />
        </mxCell>
        <mxCell id="OikmurhwPrqFWd2QoXXc-31" value="Event Type" style="ellipse;whiteSpace=wrap;html=1;" parent="1" vertex="1">
          <mxGeometry x="17" y="505" width="70" height="30" as="geometry" />
        </mxCell>
        <mxCell id="OikmurhwPrqFWd2QoXXc-32" value="include dj" style="ellipse;whiteSpace=wrap;html=1;" parent="1" vertex="1">
          <mxGeometry x="17" y="540" width="70" height="30" as="geometry" />
        </mxCell>
        <mxCell id="OikmurhwPrqFWd2QoXXc-33" value="include decoration" style="ellipse;whiteSpace=wrap;html=1;" parent="1" vertex="1">
          <mxGeometry x="17" y="580" width="70" height="30" as="geometry" />
        </mxCell>
        <mxCell id="OikmurhwPrqFWd2QoXXc-34" value="additional request" style="ellipse;whiteSpace=wrap;html=1;" parent="1" vertex="1">
          <mxGeometry x="-3" y="630" width="70" height="30" as="geometry" />
        </mxCell>
        <mxCell id="OikmurhwPrqFWd2QoXXc-35" value="email" style="ellipse;whiteSpace=wrap;html=1;" parent="1" vertex="1">
          <mxGeometry x="7" y="670" width="70" height="30" as="geometry" />
        </mxCell>
        <mxCell id="OikmurhwPrqFWd2QoXXc-36" value="start date" style="ellipse;whiteSpace=wrap;html=1;" parent="1" vertex="1">
          <mxGeometry x="17" y="400" width="70" height="30" as="geometry" />
        </mxCell>
        <mxCell id="OikmurhwPrqFWd2QoXXc-37" value="id" style="ellipse;whiteSpace=wrap;html=1;fontStyle=4" parent="1" vertex="1">
          <mxGeometry x="102" y="360" width="70" height="30" as="geometry" />
        </mxCell>
        <mxCell id="OikmurhwPrqFWd2QoXXc-38" value="selected dishes" style="ellipse;whiteSpace=wrap;html=1;" parent="1" vertex="1">
          <mxGeometry x="17" y="720" width="70" height="30" as="geometry" />
        </mxCell>
        <mxCell id="OikmurhwPrqFWd2QoXXc-40" value="total cost" style="ellipse;whiteSpace=wrap;html=1;" parent="1" vertex="1">
          <mxGeometry x="77" y="690" width="80" height="30" as="geometry" />
        </mxCell>
        <mxCell id="OikmurhwPrqFWd2QoXXc-41" value="created _at" style="ellipse;whiteSpace=wrap;html=1;" parent="1" vertex="1">
          <mxGeometry x="102" y="730" width="80" height="30" as="geometry" />
        </mxCell>
        <mxCell id="OikmurhwPrqFWd2QoXXc-42" value="name" style="ellipse;whiteSpace=wrap;html=1;" parent="1" vertex="1">
          <mxGeometry x="17" y="360" width="80" height="30" as="geometry" />
        </mxCell>
        <mxCell id="OikmurhwPrqFWd2QoXXc-43" value="" style="endArrow=none;html=1;rounded=0;entryX=0.714;entryY=1;entryDx=0;entryDy=0;exitX=0.5;exitY=0;exitDx=0;exitDy=0;entryPerimeter=0;" parent="1" source="OikmurhwPrqFWd2QoXXc-4" target="OikmurhwPrqFWd2QoXXc-37" edge="1">
          <mxGeometry width="50" height="50" relative="1" as="geometry">
            <mxPoint x="226.5" y="500" as="sourcePoint" />
            <mxPoint x="226.5" y="430" as="targetPoint" />
          </mxGeometry>
        </mxCell>
        <mxCell id="OikmurhwPrqFWd2QoXXc-44" value="" style="endArrow=none;html=1;rounded=0;entryX=1;entryY=1;entryDx=0;entryDy=0;exitX=0.5;exitY=0;exitDx=0;exitDy=0;" parent="1" source="OikmurhwPrqFWd2QoXXc-4" target="OikmurhwPrqFWd2QoXXc-42" edge="1">
          <mxGeometry width="50" height="50" relative="1" as="geometry">
            <mxPoint x="227" y="500" as="sourcePoint" />
            <mxPoint x="95.2842712474619" y="425.6066017177982" as="targetPoint" />
          </mxGeometry>
        </mxCell>
        <mxCell id="OikmurhwPrqFWd2QoXXc-45" value="" style="endArrow=none;html=1;rounded=0;entryX=0.971;entryY=0.733;entryDx=0;entryDy=0;entryPerimeter=0;exitX=0.5;exitY=0;exitDx=0;exitDy=0;" parent="1" source="OikmurhwPrqFWd2QoXXc-4" target="OikmurhwPrqFWd2QoXXc-36" edge="1">
          <mxGeometry width="50" height="50" relative="1" as="geometry">
            <mxPoint x="217" y="490" as="sourcePoint" />
            <mxPoint x="97" y="450" as="targetPoint" />
          </mxGeometry>
        </mxCell>
        <mxCell id="OikmurhwPrqFWd2QoXXc-46" value="" style="endArrow=none;html=1;rounded=0;entryX=1;entryY=0.5;entryDx=0;entryDy=0;exitX=0.5;exitY=0;exitDx=0;exitDy=0;" parent="1" source="OikmurhwPrqFWd2QoXXc-4" target="OikmurhwPrqFWd2QoXXc-29" edge="1">
          <mxGeometry width="50" height="50" relative="1" as="geometry">
            <mxPoint x="227" y="500" as="sourcePoint" />
            <mxPoint x="107" y="460" as="targetPoint" />
          </mxGeometry>
        </mxCell>
        <mxCell id="OikmurhwPrqFWd2QoXXc-47" value="" style="endArrow=none;html=1;rounded=0;entryX=1;entryY=0.5;entryDx=0;entryDy=0;exitX=0;exitY=0.5;exitDx=0;exitDy=0;" parent="1" source="OikmurhwPrqFWd2QoXXc-4" target="OikmurhwPrqFWd2QoXXc-30" edge="1">
          <mxGeometry width="50" height="50" relative="1" as="geometry">
            <mxPoint x="227" y="500" as="sourcePoint" />
            <mxPoint x="122" y="495" as="targetPoint" />
          </mxGeometry>
        </mxCell>
        <mxCell id="OikmurhwPrqFWd2QoXXc-48" value="" style="endArrow=none;html=1;rounded=0;entryX=1;entryY=0.5;entryDx=0;entryDy=0;exitX=0;exitY=0.5;exitDx=0;exitDy=0;" parent="1" source="OikmurhwPrqFWd2QoXXc-4" target="OikmurhwPrqFWd2QoXXc-31" edge="1">
          <mxGeometry width="50" height="50" relative="1" as="geometry">
            <mxPoint x="182" y="520" as="sourcePoint" />
            <mxPoint x="122" y="535" as="targetPoint" />
          </mxGeometry>
        </mxCell>
        <mxCell id="OikmurhwPrqFWd2QoXXc-49" value="" style="endArrow=none;html=1;rounded=0;entryX=0.966;entryY=0.3;entryDx=0;entryDy=0;entryPerimeter=0;exitX=0;exitY=1;exitDx=0;exitDy=0;" parent="1" source="OikmurhwPrqFWd2QoXXc-4" target="OikmurhwPrqFWd2QoXXc-32" edge="1">
          <mxGeometry width="50" height="50" relative="1" as="geometry">
            <mxPoint x="177" y="540" as="sourcePoint" />
            <mxPoint x="122" y="575" as="targetPoint" />
          </mxGeometry>
        </mxCell>
        <mxCell id="OikmurhwPrqFWd2QoXXc-50" value="" style="endArrow=none;html=1;rounded=0;entryX=1;entryY=0.5;entryDx=0;entryDy=0;exitX=0.118;exitY=0.985;exitDx=0;exitDy=0;exitPerimeter=0;" parent="1" source="OikmurhwPrqFWd2QoXXc-4" target="OikmurhwPrqFWd2QoXXc-33" edge="1">
          <mxGeometry width="50" height="50" relative="1" as="geometry">
            <mxPoint x="182" y="540" as="sourcePoint" />
            <mxPoint x="125" y="609" as="targetPoint" />
          </mxGeometry>
        </mxCell>
        <mxCell id="OikmurhwPrqFWd2QoXXc-51" value="" style="endArrow=none;html=1;rounded=0;entryX=1;entryY=0;entryDx=0;entryDy=0;exitX=0.25;exitY=1;exitDx=0;exitDy=0;" parent="1" source="OikmurhwPrqFWd2QoXXc-4" target="OikmurhwPrqFWd2QoXXc-34" edge="1">
          <mxGeometry width="50" height="50" relative="1" as="geometry">
            <mxPoint x="193" y="539" as="sourcePoint" />
            <mxPoint x="137" y="655" as="targetPoint" />
          </mxGeometry>
        </mxCell>
        <mxCell id="OikmurhwPrqFWd2QoXXc-52" value="" style="endArrow=none;html=1;rounded=0;exitX=0.378;exitY=1.025;exitDx=0;exitDy=0;exitPerimeter=0;" parent="1" source="OikmurhwPrqFWd2QoXXc-4" target="OikmurhwPrqFWd2QoXXc-35" edge="1">
          <mxGeometry width="50" height="50" relative="1" as="geometry">
            <mxPoint x="208" y="530" as="sourcePoint" />
            <mxPoint x="175" y="667" as="targetPoint" />
          </mxGeometry>
        </mxCell>
        <mxCell id="OikmurhwPrqFWd2QoXXc-53" value="" style="endArrow=none;html=1;rounded=0;exitX=0.5;exitY=1;exitDx=0;exitDy=0;entryX=0.5;entryY=0;entryDx=0;entryDy=0;" parent="1" source="OikmurhwPrqFWd2QoXXc-4" target="OikmurhwPrqFWd2QoXXc-38" edge="1">
          <mxGeometry width="50" height="50" relative="1" as="geometry">
            <mxPoint x="218" y="542" as="sourcePoint" />
            <mxPoint x="248" y="655" as="targetPoint" />
          </mxGeometry>
        </mxCell>
        <mxCell id="OikmurhwPrqFWd2QoXXc-54" value="" style="endArrow=none;html=1;rounded=0;entryX=0.5;entryY=0;entryDx=0;entryDy=0;" parent="1" target="OikmurhwPrqFWd2QoXXc-40" edge="1">
          <mxGeometry width="50" height="50" relative="1" as="geometry">
            <mxPoint x="290" y="530" as="sourcePoint" />
            <mxPoint x="277" y="630" as="targetPoint" />
          </mxGeometry>
        </mxCell>
        <mxCell id="OikmurhwPrqFWd2QoXXc-55" value="" style="endArrow=none;html=1;rounded=0;exitX=0.75;exitY=1;exitDx=0;exitDy=0;" parent="1" source="OikmurhwPrqFWd2QoXXc-4" target="OikmurhwPrqFWd2QoXXc-41" edge="1">
          <mxGeometry width="50" height="50" relative="1" as="geometry">
            <mxPoint x="244" y="542" as="sourcePoint" />
            <mxPoint x="287" y="595" as="targetPoint" />
          </mxGeometry>
        </mxCell>
        <mxCell id="OikmurhwPrqFWd2QoXXc-56" value="created_at" style="ellipse;whiteSpace=wrap;html=1;" parent="1" vertex="1">
          <mxGeometry x="664.5" y="745" width="95" height="40" as="geometry" />
        </mxCell>
        <mxCell id="OikmurhwPrqFWd2QoXXc-57" value="name" style="ellipse;whiteSpace=wrap;html=1;" parent="1" vertex="1">
          <mxGeometry x="607" y="782.5" width="95" height="40" as="geometry" />
        </mxCell>
        <mxCell id="OikmurhwPrqFWd2QoXXc-58" value="id" style="ellipse;whiteSpace=wrap;html=1;fontStyle=4" parent="1" vertex="1">
          <mxGeometry x="517" y="750" width="95" height="40" as="geometry" />
        </mxCell>
        <mxCell id="OikmurhwPrqFWd2QoXXc-59" value="updated_at" style="ellipse;whiteSpace=wrap;html=1;" parent="1" vertex="1">
          <mxGeometry x="682" y="690" width="95" height="40" as="geometry" />
        </mxCell>
        <mxCell id="OikmurhwPrqFWd2QoXXc-60" value="" style="endArrow=none;html=1;rounded=0;exitX=0.5;exitY=1;exitDx=0;exitDy=0;entryX=1;entryY=0;entryDx=0;entryDy=0;" parent="1" source="OikmurhwPrqFWd2QoXXc-18" target="OikmurhwPrqFWd2QoXXc-58" edge="1">
          <mxGeometry width="50" height="50" relative="1" as="geometry">
            <mxPoint x="441" y="590" as="sourcePoint" />
            <mxPoint x="439" y="638" as="targetPoint" />
          </mxGeometry>
        </mxCell>
        <mxCell id="OikmurhwPrqFWd2QoXXc-61" value="" style="endArrow=none;html=1;rounded=0;entryX=0.5;entryY=0;entryDx=0;entryDy=0;exitX=0.5;exitY=1;exitDx=0;exitDy=0;" parent="1" source="OikmurhwPrqFWd2QoXXc-18" target="OikmurhwPrqFWd2QoXXc-57" edge="1">
          <mxGeometry width="50" height="50" relative="1" as="geometry">
            <mxPoint x="437" y="670" as="sourcePoint" />
            <mxPoint x="387" y="756" as="targetPoint" />
          </mxGeometry>
        </mxCell>
        <mxCell id="OikmurhwPrqFWd2QoXXc-62" value="" style="endArrow=none;html=1;rounded=0;exitX=0.5;exitY=1;exitDx=0;exitDy=0;" parent="1" source="OikmurhwPrqFWd2QoXXc-18" target="OikmurhwPrqFWd2QoXXc-56" edge="1">
          <mxGeometry width="50" height="50" relative="1" as="geometry">
            <mxPoint x="434" y="670" as="sourcePoint" />
            <mxPoint x="434" y="780" as="targetPoint" />
          </mxGeometry>
        </mxCell>
        <mxCell id="OikmurhwPrqFWd2QoXXc-63" value="" style="endArrow=none;html=1;rounded=0;entryX=0;entryY=0.5;entryDx=0;entryDy=0;exitX=0.5;exitY=1;exitDx=0;exitDy=0;" parent="1" source="OikmurhwPrqFWd2QoXXc-18" target="OikmurhwPrqFWd2QoXXc-59" edge="1">
          <mxGeometry width="50" height="50" relative="1" as="geometry">
            <mxPoint x="436" y="673" as="sourcePoint" />
            <mxPoint x="519" y="771" as="targetPoint" />
          </mxGeometry>
        </mxCell>
        <mxCell id="OikmurhwPrqFWd2QoXXc-64" value="created_at" style="ellipse;whiteSpace=wrap;html=1;" parent="1" vertex="1">
          <mxGeometry x="747" y="465" width="75" height="40" as="geometry" />
        </mxCell>
        <mxCell id="OikmurhwPrqFWd2QoXXc-65" value="category_id(FK)" style="ellipse;whiteSpace=wrap;html=1;" parent="1" vertex="1">
          <mxGeometry x="722" y="320" width="105" height="40" as="geometry" />
        </mxCell>
        <mxCell id="OikmurhwPrqFWd2QoXXc-66" value="price" style="ellipse;whiteSpace=wrap;html=1;" parent="1" vertex="1">
          <mxGeometry x="737" y="420" width="75" height="40" as="geometry" />
        </mxCell>
        <mxCell id="OikmurhwPrqFWd2QoXXc-67" value="name" style="ellipse;whiteSpace=wrap;html=1;" parent="1" vertex="1">
          <mxGeometry x="729" y="370" width="75" height="40" as="geometry" />
        </mxCell>
        <mxCell id="OikmurhwPrqFWd2QoXXc-68" value="id" style="ellipse;whiteSpace=wrap;html=1;fontStyle=4" parent="1" vertex="1">
          <mxGeometry x="702" y="280" width="75" height="40" as="geometry" />
        </mxCell>
        <mxCell id="OikmurhwPrqFWd2QoXXc-69" value="" style="endArrow=none;html=1;rounded=0;exitX=0;exitY=0;exitDx=0;exitDy=0;entryX=1;entryY=0.75;entryDx=0;entryDy=0;" parent="1" source="OikmurhwPrqFWd2QoXXc-64" target="OikmurhwPrqFWd2QoXXc-15" edge="1">
          <mxGeometry width="50" height="50" relative="1" as="geometry">
            <mxPoint x="607" y="440" as="sourcePoint" />
            <mxPoint x="637" y="420" as="targetPoint" />
          </mxGeometry>
        </mxCell>
        <mxCell id="OikmurhwPrqFWd2QoXXc-70" value="" style="endArrow=none;html=1;rounded=0;exitX=0;exitY=0.5;exitDx=0;exitDy=0;entryX=1;entryY=0.5;entryDx=0;entryDy=0;" parent="1" source="OikmurhwPrqFWd2QoXXc-66" target="OikmurhwPrqFWd2QoXXc-15" edge="1">
          <mxGeometry width="50" height="50" relative="1" as="geometry">
            <mxPoint x="712" y="460" as="sourcePoint" />
            <mxPoint x="637" y="410" as="targetPoint" />
          </mxGeometry>
        </mxCell>
        <mxCell id="OikmurhwPrqFWd2QoXXc-71" value="" style="endArrow=none;html=1;rounded=0;exitX=0;exitY=0.5;exitDx=0;exitDy=0;entryX=1;entryY=0.5;entryDx=0;entryDy=0;" parent="1" source="OikmurhwPrqFWd2QoXXc-67" target="OikmurhwPrqFWd2QoXXc-15" edge="1">
          <mxGeometry width="50" height="50" relative="1" as="geometry">
            <mxPoint x="722" y="410" as="sourcePoint" />
            <mxPoint x="637" y="410" as="targetPoint" />
          </mxGeometry>
        </mxCell>
        <mxCell id="OikmurhwPrqFWd2QoXXc-73" value="" style="endArrow=none;html=1;rounded=0;entryX=1;entryY=0.5;entryDx=0;entryDy=0;exitX=0;exitY=0.5;exitDx=0;exitDy=0;" parent="1" source="OikmurhwPrqFWd2QoXXc-65" target="OikmurhwPrqFWd2QoXXc-15" edge="1">
          <mxGeometry width="50" height="50" relative="1" as="geometry">
            <mxPoint x="687" y="360" as="sourcePoint" />
            <mxPoint x="637" y="410" as="targetPoint" />
          </mxGeometry>
        </mxCell>
        <mxCell id="OikmurhwPrqFWd2QoXXc-74" value="" style="endArrow=none;html=1;rounded=0;exitX=0;exitY=1;exitDx=0;exitDy=0;entryX=1;entryY=0.25;entryDx=0;entryDy=0;" parent="1" source="OikmurhwPrqFWd2QoXXc-68" target="OikmurhwPrqFWd2QoXXc-15" edge="1">
          <mxGeometry width="50" height="50" relative="1" as="geometry">
            <mxPoint x="732" y="370" as="sourcePoint" />
            <mxPoint x="637" y="400" as="targetPoint" />
          </mxGeometry>
        </mxCell>
        <mxCell id="OikmurhwPrqFWd2QoXXc-75" value="updated_at" style="ellipse;whiteSpace=wrap;html=1;" parent="1" vertex="1">
          <mxGeometry x="747" y="520" width="75" height="40" as="geometry" />
        </mxCell>
        <mxCell id="OikmurhwPrqFWd2QoXXc-76" value="" style="endArrow=none;html=1;rounded=0;exitX=0.5;exitY=0;exitDx=0;exitDy=0;entryX=0.922;entryY=0.985;entryDx=0;entryDy=0;entryPerimeter=0;" parent="1" source="OikmurhwPrqFWd2QoXXc-75" target="OikmurhwPrqFWd2QoXXc-15" edge="1">
          <mxGeometry width="50" height="50" relative="1" as="geometry">
            <mxPoint x="633" y="546" as="sourcePoint" />
            <mxPoint x="582" y="470" as="targetPoint" />
          </mxGeometry>
        </mxCell>
        <mxCell id="OikmurhwPrqFWd2QoXXc-77" value="id" style="ellipse;whiteSpace=wrap;html=1;fontStyle=4" parent="1" vertex="1">
          <mxGeometry x="347" y="130" width="70" height="40" as="geometry" />
        </mxCell>
        <mxCell id="OikmurhwPrqFWd2QoXXc-78" value="name" style="ellipse;whiteSpace=wrap;html=1;" parent="1" vertex="1">
          <mxGeometry x="342" y="80" width="70" height="40" as="geometry" />
        </mxCell>
        <mxCell id="OikmurhwPrqFWd2QoXXc-79" value="email" style="ellipse;whiteSpace=wrap;html=1;" parent="1" vertex="1">
          <mxGeometry x="356" y="30" width="70" height="40" as="geometry" />
        </mxCell>
        <mxCell id="OikmurhwPrqFWd2QoXXc-80" value="start_Date" style="ellipse;whiteSpace=wrap;html=1;" parent="1" vertex="1">
          <mxGeometry x="422" y="10" width="70" height="40" as="geometry" />
        </mxCell>
        <mxCell id="OikmurhwPrqFWd2QoXXc-81" value="end_date" style="ellipse;whiteSpace=wrap;html=1;" parent="1" vertex="1">
          <mxGeometry x="497" y="10" width="70" height="40" as="geometry" />
        </mxCell>
        <mxCell id="OikmurhwPrqFWd2QoXXc-82" value="guests" style="ellipse;whiteSpace=wrap;html=1;" parent="1" vertex="1">
          <mxGeometry x="577" y="10" width="70" height="40" as="geometry" />
        </mxCell>
        <mxCell id="OikmurhwPrqFWd2QoXXc-83" value="event_type" style="ellipse;whiteSpace=wrap;html=1;" parent="1" vertex="1">
          <mxGeometry x="657" y="10" width="70" height="40" as="geometry" />
        </mxCell>
        <mxCell id="OikmurhwPrqFWd2QoXXc-84" value="include_dj" style="ellipse;whiteSpace=wrap;html=1;" parent="1" vertex="1">
          <mxGeometry x="722" y="40" width="70" height="40" as="geometry" />
        </mxCell>
        <mxCell id="OikmurhwPrqFWd2QoXXc-86" value="additional request" style="ellipse;whiteSpace=wrap;html=1;" parent="1" vertex="1">
          <mxGeometry x="722" y="140" width="70" height="40" as="geometry" />
        </mxCell>
        <mxCell id="OikmurhwPrqFWd2QoXXc-87" value="include decoration" style="ellipse;whiteSpace=wrap;html=1;" parent="1" vertex="1">
          <mxGeometry x="727" y="90" width="70" height="40" as="geometry" />
        </mxCell>
        <mxCell id="OikmurhwPrqFWd2QoXXc-88" value="selected dishes" style="ellipse;whiteSpace=wrap;html=1;" parent="1" vertex="1">
          <mxGeometry x="722" y="190" width="70" height="40" as="geometry" />
        </mxCell>
        <mxCell id="OikmurhwPrqFWd2QoXXc-89" value="total cost" style="ellipse;whiteSpace=wrap;html=1;" parent="1" vertex="1">
          <mxGeometry x="677" y="230" width="70" height="40" as="geometry" />
        </mxCell>
        <mxCell id="OikmurhwPrqFWd2QoXXc-90" value="created_at" style="ellipse;whiteSpace=wrap;html=1;" parent="1" vertex="1">
          <mxGeometry x="607" y="260" width="70" height="40" as="geometry" />
        </mxCell>
        <mxCell id="OikmurhwPrqFWd2QoXXc-91" value="" style="endArrow=none;html=1;rounded=0;entryX=1;entryY=0.5;entryDx=0;entryDy=0;" parent="1" target="OikmurhwPrqFWd2QoXXc-77" edge="1">
          <mxGeometry width="50" height="50" relative="1" as="geometry">
            <mxPoint x="507" y="210" as="sourcePoint" />
            <mxPoint x="497" y="240" as="targetPoint" />
          </mxGeometry>
        </mxCell>
        <mxCell id="OikmurhwPrqFWd2QoXXc-92" value="" style="endArrow=none;html=1;rounded=0;entryX=1;entryY=0.5;entryDx=0;entryDy=0;exitX=0.25;exitY=0;exitDx=0;exitDy=0;" parent="1" source="OikmurhwPrqFWd2QoXXc-3" target="OikmurhwPrqFWd2QoXXc-78" edge="1">
          <mxGeometry width="50" height="50" relative="1" as="geometry">
            <mxPoint x="505" y="217" as="sourcePoint" />
            <mxPoint x="427" y="160" as="targetPoint" />
          </mxGeometry>
        </mxCell>
        <mxCell id="OikmurhwPrqFWd2QoXXc-93" value="" style="endArrow=none;html=1;rounded=0;entryX=1;entryY=1;entryDx=0;entryDy=0;exitX=0.364;exitY=-0.005;exitDx=0;exitDy=0;exitPerimeter=0;" parent="1" source="OikmurhwPrqFWd2QoXXc-3" target="OikmurhwPrqFWd2QoXXc-79" edge="1">
          <mxGeometry width="50" height="50" relative="1" as="geometry">
            <mxPoint x="520" y="220" as="sourcePoint" />
            <mxPoint x="422" y="110" as="targetPoint" />
          </mxGeometry>
        </mxCell>
        <mxCell id="OikmurhwPrqFWd2QoXXc-94" value="" style="endArrow=none;html=1;rounded=0;entryX=0.5;entryY=1;entryDx=0;entryDy=0;" parent="1" target="OikmurhwPrqFWd2QoXXc-80" edge="1">
          <mxGeometry width="50" height="50" relative="1" as="geometry">
            <mxPoint x="517" y="210" as="sourcePoint" />
            <mxPoint x="426" y="74" as="targetPoint" />
          </mxGeometry>
        </mxCell>
        <mxCell id="OikmurhwPrqFWd2QoXXc-95" value="" style="endArrow=none;html=1;rounded=0;entryX=0.406;entryY=1.055;entryDx=0;entryDy=0;entryPerimeter=0;" parent="1" target="OikmurhwPrqFWd2QoXXc-81" edge="1">
          <mxGeometry width="50" height="50" relative="1" as="geometry">
            <mxPoint x="517" y="210" as="sourcePoint" />
            <mxPoint x="467" y="60" as="targetPoint" />
          </mxGeometry>
        </mxCell>
        <mxCell id="OikmurhwPrqFWd2QoXXc-96" value="" style="endArrow=none;html=1;rounded=0;entryX=0.314;entryY=1.015;entryDx=0;entryDy=0;entryPerimeter=0;" parent="1" target="OikmurhwPrqFWd2QoXXc-82" edge="1">
          <mxGeometry width="50" height="50" relative="1" as="geometry">
            <mxPoint x="527" y="210" as="sourcePoint" />
            <mxPoint x="535" y="62" as="targetPoint" />
          </mxGeometry>
        </mxCell>
        <mxCell id="OikmurhwPrqFWd2QoXXc-97" value="" style="endArrow=none;html=1;rounded=0;entryX=0.286;entryY=1;entryDx=0;entryDy=0;entryPerimeter=0;exitX=0.631;exitY=0.015;exitDx=0;exitDy=0;exitPerimeter=0;" parent="1" source="OikmurhwPrqFWd2QoXXc-3" target="OikmurhwPrqFWd2QoXXc-83" edge="1">
          <mxGeometry width="50" height="50" relative="1" as="geometry">
            <mxPoint x="537" y="220" as="sourcePoint" />
            <mxPoint x="609" y="61" as="targetPoint" />
          </mxGeometry>
        </mxCell>
        <mxCell id="OikmurhwPrqFWd2QoXXc-98" value="" style="endArrow=none;html=1;rounded=0;entryX=0;entryY=0.5;entryDx=0;entryDy=0;exitX=0.75;exitY=0;exitDx=0;exitDy=0;" parent="1" source="OikmurhwPrqFWd2QoXXc-3" target="OikmurhwPrqFWd2QoXXc-84" edge="1">
          <mxGeometry width="50" height="50" relative="1" as="geometry">
            <mxPoint x="554" y="221" as="sourcePoint" />
            <mxPoint x="687" y="60" as="targetPoint" />
          </mxGeometry>
        </mxCell>
        <mxCell id="OikmurhwPrqFWd2QoXXc-99" value="" style="endArrow=none;html=1;rounded=0;entryX=0;entryY=0.5;entryDx=0;entryDy=0;exitX=1;exitY=0.25;exitDx=0;exitDy=0;" parent="1" source="OikmurhwPrqFWd2QoXXc-3" target="OikmurhwPrqFWd2QoXXc-87" edge="1">
          <mxGeometry width="50" height="50" relative="1" as="geometry">
            <mxPoint x="565" y="220" as="sourcePoint" />
            <mxPoint x="732" y="70" as="targetPoint" />
          </mxGeometry>
        </mxCell>
        <mxCell id="OikmurhwPrqFWd2QoXXc-100" value="" style="endArrow=none;html=1;rounded=0;entryX=0;entryY=0.5;entryDx=0;entryDy=0;exitX=1;exitY=0.25;exitDx=0;exitDy=0;" parent="1" source="OikmurhwPrqFWd2QoXXc-3" target="OikmurhwPrqFWd2QoXXc-86" edge="1">
          <mxGeometry width="50" height="50" relative="1" as="geometry">
            <mxPoint x="587" y="230" as="sourcePoint" />
            <mxPoint x="737" y="120" as="targetPoint" />
          </mxGeometry>
        </mxCell>
        <mxCell id="OikmurhwPrqFWd2QoXXc-101" value="" style="endArrow=none;html=1;rounded=0;entryX=0;entryY=0.5;entryDx=0;entryDy=0;exitX=1;exitY=0.25;exitDx=0;exitDy=0;" parent="1" source="OikmurhwPrqFWd2QoXXc-3" target="OikmurhwPrqFWd2QoXXc-88" edge="1">
          <mxGeometry width="50" height="50" relative="1" as="geometry">
            <mxPoint x="587" y="230" as="sourcePoint" />
            <mxPoint x="732" y="170" as="targetPoint" />
          </mxGeometry>
        </mxCell>
        <mxCell id="OikmurhwPrqFWd2QoXXc-102" value="" style="endArrow=none;html=1;rounded=0;entryX=0;entryY=0.25;entryDx=0;entryDy=0;exitX=1;exitY=0.25;exitDx=0;exitDy=0;entryPerimeter=0;" parent="1" source="OikmurhwPrqFWd2QoXXc-3" target="OikmurhwPrqFWd2QoXXc-89" edge="1">
          <mxGeometry width="50" height="50" relative="1" as="geometry">
            <mxPoint x="587" y="230" as="sourcePoint" />
            <mxPoint x="732" y="220" as="targetPoint" />
          </mxGeometry>
        </mxCell>
        <mxCell id="OikmurhwPrqFWd2QoXXc-103" value="" style="endArrow=none;html=1;rounded=0;entryX=0.389;entryY=-0.035;entryDx=0;entryDy=0;exitX=1;exitY=0.25;exitDx=0;exitDy=0;entryPerimeter=0;" parent="1" source="OikmurhwPrqFWd2QoXXc-3" target="OikmurhwPrqFWd2QoXXc-90" edge="1">
          <mxGeometry width="50" height="50" relative="1" as="geometry">
            <mxPoint x="587" y="230" as="sourcePoint" />
            <mxPoint x="687" y="250" as="targetPoint" />
          </mxGeometry>
        </mxCell>
        <mxCell id="sGzzCx1b8seRM5bKP6T0-2" value="User" style="rounded=0;whiteSpace=wrap;html=1;" parent="1" vertex="1">
          <mxGeometry x="442" y="630" width="75" height="30" as="geometry" />
        </mxCell>
        <mxCell id="sGzzCx1b8seRM5bKP6T0-3" value="Books" style="rhombus;whiteSpace=wrap;html=1;" parent="1" vertex="1">
          <mxGeometry x="317" y="612.5" width="71" height="65" as="geometry" />
        </mxCell>
        <mxCell id="sGzzCx1b8seRM5bKP6T0-6" value="id" style="ellipse;whiteSpace=wrap;html=1;fontStyle=4" parent="1" vertex="1">
          <mxGeometry x="277" y="720" width="65" height="35" as="geometry" />
        </mxCell>
        <mxCell id="sGzzCx1b8seRM5bKP6T0-7" value="name" style="ellipse;whiteSpace=wrap;html=1;" parent="1" vertex="1">
          <mxGeometry x="313" y="760" width="65" height="35" as="geometry" />
        </mxCell>
        <mxCell id="sGzzCx1b8seRM5bKP6T0-8" value="email" style="ellipse;whiteSpace=wrap;html=1;" parent="1" vertex="1">
          <mxGeometry x="377" y="785" width="65" height="35" as="geometry" />
        </mxCell>
        <mxCell id="sGzzCx1b8seRM5bKP6T0-9" value="password" style="ellipse;whiteSpace=wrap;html=1;" parent="1" vertex="1">
          <mxGeometry x="432" y="765" width="65" height="35" as="geometry" />
        </mxCell>
        <mxCell id="sGzzCx1b8seRM5bKP6T0-10" value="" style="endArrow=none;html=1;rounded=0;entryX=0.5;entryY=1;entryDx=0;entryDy=0;exitX=0.969;exitY=0.314;exitDx=0;exitDy=0;exitPerimeter=0;" parent="1" source="sGzzCx1b8seRM5bKP6T0-6" target="sGzzCx1b8seRM5bKP6T0-2" edge="1">
          <mxGeometry width="50" height="50" relative="1" as="geometry">
            <mxPoint x="337.63537254725475" y="725.2093333342709" as="sourcePoint" />
            <mxPoint x="397" y="534" as="targetPoint" />
          </mxGeometry>
        </mxCell>
        <mxCell id="sGzzCx1b8seRM5bKP6T0-11" value="" style="endArrow=none;html=1;rounded=0;entryX=0.5;entryY=1;entryDx=0;entryDy=0;exitX=0.5;exitY=0;exitDx=0;exitDy=0;" parent="1" source="sGzzCx1b8seRM5bKP6T0-7" target="sGzzCx1b8seRM5bKP6T0-2" edge="1">
          <mxGeometry width="50" height="50" relative="1" as="geometry">
            <mxPoint x="357" y="745" as="sourcePoint" />
            <mxPoint x="455" y="670" as="targetPoint" />
          </mxGeometry>
        </mxCell>
        <mxCell id="sGzzCx1b8seRM5bKP6T0-12" value="" style="endArrow=none;html=1;rounded=0;entryX=0.5;entryY=1;entryDx=0;entryDy=0;exitX=0.5;exitY=0;exitDx=0;exitDy=0;" parent="1" source="sGzzCx1b8seRM5bKP6T0-8" target="sGzzCx1b8seRM5bKP6T0-2" edge="1">
          <mxGeometry width="50" height="50" relative="1" as="geometry">
            <mxPoint x="395" y="773" as="sourcePoint" />
            <mxPoint x="455" y="670" as="targetPoint" />
          </mxGeometry>
        </mxCell>
        <mxCell id="sGzzCx1b8seRM5bKP6T0-13" value="" style="endArrow=none;html=1;rounded=0;entryX=0.5;entryY=1;entryDx=0;entryDy=0;exitX=0.415;exitY=0;exitDx=0;exitDy=0;exitPerimeter=0;" parent="1" source="sGzzCx1b8seRM5bKP6T0-9" target="sGzzCx1b8seRM5bKP6T0-2" edge="1">
          <mxGeometry width="50" height="50" relative="1" as="geometry">
            <mxPoint x="507" y="755" as="sourcePoint" />
            <mxPoint x="455" y="670" as="targetPoint" />
          </mxGeometry>
        </mxCell>
        <mxCell id="sGzzCx1b8seRM5bKP6T0-15" value="includes" style="rhombus;whiteSpace=wrap;html=1;" parent="1" vertex="1">
          <mxGeometry x="387" y="450" width="70" height="60" as="geometry" />
        </mxCell>
        <mxCell id="sr2BzxCbkiDRQIhl4Mkd-1" value="" style="endArrow=none;html=1;rounded=0;entryX=0;entryY=0.5;entryDx=0;entryDy=0;exitX=1;exitY=0.5;exitDx=0;exitDy=0;" edge="1" parent="1" source="sGzzCx1b8seRM5bKP6T0-15" target="OikmurhwPrqFWd2QoXXc-15">
          <mxGeometry width="50" height="50" relative="1" as="geometry">
            <mxPoint x="487" y="530" as="sourcePoint" />
            <mxPoint x="537" y="480" as="targetPoint" />
          </mxGeometry>
        </mxCell>
        <mxCell id="sr2BzxCbkiDRQIhl4Mkd-2" value="" style="endArrow=none;html=1;rounded=0;entryX=0;entryY=0.5;entryDx=0;entryDy=0;exitX=1;exitY=0.5;exitDx=0;exitDy=0;" edge="1" parent="1" target="sGzzCx1b8seRM5bKP6T0-15">
          <mxGeometry width="50" height="50" relative="1" as="geometry">
            <mxPoint x="328" y="510" as="sourcePoint" />
            <mxPoint x="378" y="480" as="targetPoint" />
          </mxGeometry>
        </mxCell>
        <mxCell id="sr2BzxCbkiDRQIhl4Mkd-3" value="" style="endArrow=none;html=1;rounded=0;entryX=0.5;entryY=0;entryDx=0;entryDy=0;exitX=1;exitY=1;exitDx=0;exitDy=0;" edge="1" parent="1" source="OikmurhwPrqFWd2QoXXc-4" target="sGzzCx1b8seRM5bKP6T0-3">
          <mxGeometry width="50" height="50" relative="1" as="geometry">
            <mxPoint x="338" y="520" as="sourcePoint" />
            <mxPoint x="397" y="490" as="targetPoint" />
          </mxGeometry>
        </mxCell>
        <mxCell id="sr2BzxCbkiDRQIhl4Mkd-4" value="" style="endArrow=none;html=1;rounded=0;entryX=0;entryY=0.5;entryDx=0;entryDy=0;exitX=1;exitY=0.5;exitDx=0;exitDy=0;" edge="1" parent="1" source="sGzzCx1b8seRM5bKP6T0-3" target="sGzzCx1b8seRM5bKP6T0-2">
          <mxGeometry width="50" height="50" relative="1" as="geometry">
            <mxPoint x="337" y="540" as="sourcePoint" />
            <mxPoint x="363" y="623" as="targetPoint" />
          </mxGeometry>
        </mxCell>
        <mxCell id="sr2BzxCbkiDRQIhl4Mkd-5" value="1" style="text;html=1;align=center;verticalAlign=middle;whiteSpace=wrap;rounded=0;" vertex="1" parent="1">
          <mxGeometry x="200" y="270" width="23" height="30" as="geometry" />
        </mxCell>
        <mxCell id="sr2BzxCbkiDRQIhl4Mkd-6" value="N" style="text;html=1;align=center;verticalAlign=middle;whiteSpace=wrap;rounded=0;" vertex="1" parent="1">
          <mxGeometry x="277" y="460" width="23" height="30" as="geometry" />
        </mxCell>
        <mxCell id="sr2BzxCbkiDRQIhl4Mkd-7" value="N" style="text;html=1;align=center;verticalAlign=middle;whiteSpace=wrap;rounded=0;" vertex="1" parent="1">
          <mxGeometry x="327" y="475" width="23" height="30" as="geometry" />
        </mxCell>
        <mxCell id="sr2BzxCbkiDRQIhl4Mkd-8" value="N" style="text;html=1;align=center;verticalAlign=middle;whiteSpace=wrap;rounded=0;" vertex="1" parent="1">
          <mxGeometry x="457" y="217.5" width="23" height="25" as="geometry" />
        </mxCell>
        <mxCell id="sr2BzxCbkiDRQIhl4Mkd-10" value="N" style="text;html=1;align=center;verticalAlign=middle;whiteSpace=wrap;rounded=0;" vertex="1" parent="1">
          <mxGeometry x="547" y="400" width="23" height="25" as="geometry" />
        </mxCell>
        <mxCell id="sr2BzxCbkiDRQIhl4Mkd-11" value="1" style="text;html=1;align=center;verticalAlign=middle;whiteSpace=wrap;rounded=0;" vertex="1" parent="1">
          <mxGeometry x="535.5" y="255" width="23" height="25" as="geometry" />
        </mxCell>
        <mxCell id="sr2BzxCbkiDRQIhl4Mkd-12" value="1" style="text;html=1;align=center;verticalAlign=middle;whiteSpace=wrap;rounded=0;" vertex="1" parent="1">
          <mxGeometry x="589" y="600" width="23" height="25" as="geometry" />
        </mxCell>
        <mxCell id="sr2BzxCbkiDRQIhl4Mkd-13" value="N" style="text;html=1;align=center;verticalAlign=middle;whiteSpace=wrap;rounded=0;" vertex="1" parent="1">
          <mxGeometry x="527" y="470" width="23" height="25" as="geometry" />
        </mxCell>
        <mxCell id="sr2BzxCbkiDRQIhl4Mkd-14" value="N" style="text;html=1;align=center;verticalAlign=middle;whiteSpace=wrap;rounded=0;" vertex="1" parent="1">
          <mxGeometry x="414" y="645" width="23" height="25" as="geometry" />
        </mxCell>
        <mxCell id="sr2BzxCbkiDRQIhl4Mkd-15" value="N" style="text;html=1;align=center;verticalAlign=middle;whiteSpace=wrap;rounded=0;" vertex="1" parent="1">
          <mxGeometry x="304" y="535" width="23" height="25" as="geometry" />
        </mxCell>
        <mxCell id="sr2BzxCbkiDRQIhl4Mkd-16" value="N" style="text;html=1;align=center;verticalAlign=middle;whiteSpace=wrap;rounded=0;" vertex="1" parent="1">
          <mxGeometry x="327" y="505" width="23" height="30" as="geometry" />
        </mxCell>
        <mxCell id="sr2BzxCbkiDRQIhl4Mkd-17" value="N" style="text;html=1;align=center;verticalAlign=middle;whiteSpace=wrap;rounded=0;" vertex="1" parent="1">
          <mxGeometry x="484" y="430" width="23" height="30" as="geometry" />
        </mxCell>
        <mxCell id="sr2BzxCbkiDRQIhl4Mkd-18" value="1" style="text;html=1;align=center;verticalAlign=middle;whiteSpace=wrap;rounded=0;" vertex="1" parent="1">
          <mxGeometry x="254" y="250" width="23" height="30" as="geometry" />
        </mxCell>
        <mxCell id="sr2BzxCbkiDRQIhl4Mkd-19" value="N" style="text;html=1;align=center;verticalAlign=middle;whiteSpace=wrap;rounded=0;" vertex="1" parent="1">
          <mxGeometry x="313" y="460" width="23" height="30" as="geometry" />
        </mxCell>
      </root>
    </mxGraphModel>
  </diagram>
</mxfile>
